<svg width="332" height="114" viewBox="0 0 332 114" fill="none" xmlns="http://www.w3.org/2000/svg">
<g filter="url(#filter0_d_135_17)">
<path d="M24.385 88.7374C22.375 88.7374 20.8787 88.246 19.896 87.2634C18.958 86.236 18.489 84.9407 18.489 83.3774V82.0374C18.489 80.4741 18.958 79.201 19.896 78.2184C20.8787 77.1911 22.375 76.6774 24.385 76.6774C26.395 76.6774 27.869 77.1911 28.807 78.2184C29.7897 79.201 30.281 80.4741 30.281 82.0374V83.3774C30.281 84.9407 29.7897 86.236 28.807 87.2634C27.869 88.246 26.395 88.7374 24.385 88.7374Z" fill="#424242"/>
<path d="M70.0188 88.0004L66.6688 76.8784H51.0578L47.7078 88.0004H37.3898L52.7998 41.2344H65.3958L80.6048 88.0004H70.0188ZM58.9638 50.4804H58.6288L53.4698 68.2354H64.1898L58.9638 50.4804Z" fill="#424242"/>
<path d="M107.309 82.1044H106.974C106.661 82.9977 106.237 83.8464 105.701 84.6504C105.21 85.4544 104.562 86.1691 103.758 86.7944C102.954 87.4197 101.994 87.911 100.877 88.2684C99.805 88.6257 98.5544 88.8044 97.125 88.8044C93.507 88.8044 90.76 87.6207 88.884 85.2534C87.0527 82.8414 86.137 79.4021 86.137 74.9354V52.8254H96.053V74.0644C96.053 76.2084 96.4327 77.861 97.192 79.0224C97.9514 80.1837 99.2467 80.7644 101.078 80.7644C101.837 80.7644 102.597 80.6527 103.356 80.4294C104.115 80.206 104.785 79.8934 105.366 79.4914C105.947 79.0447 106.416 78.5087 106.773 77.8834C107.13 77.2581 107.309 76.521 107.309 75.6724V52.8254H117.225V88.0004H107.309V82.1044Z" fill="#424242"/>
<path d="M138.779 88.0004C135.34 88.0004 132.727 87.1294 130.94 85.3874C129.198 83.6454 128.327 81.0994 128.327 77.7494V60.5304H123.369V52.8254H125.848C127.188 52.8254 128.104 52.5127 128.595 51.8874C129.086 51.2174 129.332 50.2794 129.332 49.0734V43.3114H138.243V52.8254H145.211V60.5304H138.243V80.2954H144.675V88.0004H138.779Z" fill="#424242"/>
<path d="M166.109 88.8044C163.518 88.8044 161.196 88.3801 159.141 87.5314C157.131 86.6827 155.411 85.4544 153.982 83.8464C152.597 82.2384 151.525 80.2954 150.766 78.0174C150.007 75.7394 149.627 73.1934 149.627 70.3794C149.627 67.5654 150.007 65.0194 150.766 62.7414C151.525 60.4634 152.597 58.5427 153.982 56.9794C155.411 55.3714 157.131 54.143 159.141 53.2944C161.196 52.4457 163.518 52.0214 166.109 52.0214C168.7 52.0214 171 52.4457 173.01 53.2944C175.065 54.143 176.784 55.3714 178.169 56.9794C179.598 58.5427 180.693 60.4634 181.452 62.7414C182.211 65.0194 182.591 67.5654 182.591 70.3794C182.591 73.1934 182.211 75.7394 181.452 78.0174C180.693 80.2954 179.598 82.2384 178.169 83.8464C176.784 85.4544 175.065 86.6827 173.01 87.5314C171 88.3801 168.7 88.8044 166.109 88.8044ZM166.109 80.9654C168.074 80.9654 169.593 80.3624 170.665 79.1564C171.737 77.9504 172.273 76.2307 172.273 73.9974V66.8284C172.273 64.595 171.737 62.8754 170.665 61.6694C169.593 60.4634 168.074 59.8604 166.109 59.8604C164.144 59.8604 162.625 60.4634 161.553 61.6694C160.481 62.8754 159.945 64.595 159.945 66.8284V73.9974C159.945 76.2307 160.481 77.9504 161.553 79.1564C162.625 80.3624 164.144 80.9654 166.109 80.9654Z" fill="#424242"/>
<path d="M191.006 60.5304H186.048V52.8254H191.006V48.6714C191.006 45.2767 191.899 42.7307 193.686 41.0334C195.472 39.2914 198.085 38.4204 201.525 38.4204H207.957V46.1254H200.922V52.8254H223.367V88.0004H213.451V60.5304H200.922V88.0004H191.006V60.5304ZM218.409 49.0734C216.399 49.0734 214.925 48.6267 213.987 47.7334C213.093 46.7954 212.647 45.6117 212.647 44.1824V42.7084C212.647 41.279 213.093 40.1177 213.987 39.2244C214.925 38.2864 216.399 37.8174 218.409 37.8174C220.419 37.8174 221.87 38.2864 222.764 39.2244C223.702 40.1177 224.171 41.279 224.171 42.7084V44.1824C224.171 45.6117 223.702 46.7954 222.764 47.7334C221.87 48.6267 220.419 49.0734 218.409 49.0734Z" fill="#A19A9A"/>
<path d="M242.493 88.0004C239.098 88.0004 236.597 87.1741 234.989 85.5214C233.425 83.8687 232.644 81.479 232.644 78.3524V38.4204H242.56V80.2954H246.982V88.0004H242.493Z" fill="#A19A9A"/>
<path d="M267.6 88.8044C264.92 88.8044 262.53 88.3801 260.431 87.5314C258.331 86.6381 256.545 85.4097 255.071 83.8464C253.641 82.2384 252.547 80.2954 251.788 78.0174C251.073 75.7394 250.716 73.1934 250.716 70.3794C250.716 67.6101 251.073 65.1087 251.788 62.8754C252.502 60.5974 253.552 58.6544 254.937 57.0464C256.366 55.4384 258.108 54.21 260.163 53.3614C262.217 52.4681 264.562 52.0214 267.198 52.0214C270.101 52.0214 272.58 52.5127 274.635 53.4954C276.734 54.478 278.431 55.7957 279.727 57.4484C281.067 59.101 282.027 61.0217 282.608 63.2104C283.233 65.3544 283.546 67.6101 283.546 69.9774V72.9254H260.967V73.4614C260.967 75.784 261.592 77.6377 262.843 79.0224C264.093 80.3624 266.059 81.0324 268.739 81.0324C270.793 81.0324 272.468 80.6304 273.764 79.8264C275.059 78.9777 276.265 77.9727 277.382 76.8114L282.34 82.9754C280.776 84.8067 278.722 86.236 276.176 87.2634C273.674 88.2907 270.816 88.8044 267.6 88.8044ZM267.399 59.3244C265.389 59.3244 263.803 59.9944 262.642 61.3344C261.525 62.6297 260.967 64.3717 260.967 66.5604V67.0964H273.295V66.4934C273.295 64.3494 272.803 62.6297 271.821 61.3344C270.883 59.9944 269.409 59.3244 267.399 59.3244Z" fill="#A19A9A"/>
</g>
<defs>
<filter id="filter0_d_135_17" x="14.489" y="37.8174" width="273.057" height="58.9873" filterUnits="userSpaceOnUse" color-interpolation-filters="sRGB">
<feFlood flood-opacity="0" result="BackgroundImageFix"/>
<feColorMatrix in="SourceAlpha" type="matrix" values="0 0 0 0 0 0 0 0 0 0 0 0 0 0 0 0 0 0 127 0" result="hardAlpha"/>
<feOffset dy="4"/>
<feGaussianBlur stdDeviation="2"/>
<feComposite in2="hardAlpha" operator="out"/>
<feColorMatrix type="matrix" values="0 0 0 0 0.499294 0 0 0 0 0.499294 0 0 0 0 0.499294 0 0 0 0.25 0"/>
<feBlend mode="normal" in2="BackgroundImageFix" result="effect1_dropShadow_135_17"/>
<feBlend mode="normal" in="SourceGraphic" in2="effect1_dropShadow_135_17" result="shape"/>
</filter>
</defs>
</svg>
